<mxfile host="app.diagrams.net" agent="Mozilla/5.0 (Windows NT 10.0; Win64; x64) AppleWebKit/537.36 (KHTML, like Gecko) Chrome/137.0.0.0 Safari/537.36" version="27.1.6">
  <diagram name="Página-1" id="cywcWZN6CDEDMyV-TE8t">
    <mxGraphModel grid="1" page="1" gridSize="10" guides="1" tooltips="1" connect="1" arrows="1" fold="1" pageScale="1" pageWidth="827" pageHeight="1169" math="0" shadow="0">
      <root>
        <mxCell id="0" />
        <mxCell id="1" parent="0" />
        <mxCell id="d0ymZouNEAS_O8Z15JuN-1" value="Administrador" style="html=1;whiteSpace=wrap;" vertex="1" parent="1">
          <mxGeometry x="50" y="50" width="110" height="50" as="geometry" />
        </mxCell>
        <mxCell id="d0ymZouNEAS_O8Z15JuN-2" value="Sistema&lt;span style=&quot;color: rgba(0, 0, 0, 0); font-family: monospace; font-size: 0px; text-align: start; text-wrap-mode: nowrap;&quot;&gt;%3CmxGraphModel%3E%3Croot%3E%3CmxCell%20id%3D%220%22%2F%3E%3CmxCell%20id%3D%221%22%20parent%3D%220%22%2F%3E%3CmxCell%20id%3D%222%22%20value%3D%22Usuario%22%20style%3D%22html%3D1%3BwhiteSpace%3Dwrap%3B%22%20vertex%3D%221%22%20parent%3D%221%22%3E%3CmxGeometry%20x%3D%2270%22%20y%3D%2240%22%20width%3D%22110%22%20height%3D%2250%22%20as%3D%22geometry%22%2F%3E%3C%2FmxCell%3E%3C%2Froot%3E%3C%2FmxGraphModel%3E&lt;/span&gt;" style="html=1;whiteSpace=wrap;" vertex="1" parent="1">
          <mxGeometry x="250" y="50" width="110" height="50" as="geometry" />
        </mxCell>
        <mxCell id="d0ymZouNEAS_O8Z15JuN-3" value="Base de datos" style="html=1;whiteSpace=wrap;" vertex="1" parent="1">
          <mxGeometry x="450" y="50" width="110" height="50" as="geometry" />
        </mxCell>
        <mxCell id="d0ymZouNEAS_O8Z15JuN-4" value="Administrador" style="html=1;whiteSpace=wrap;" vertex="1" parent="1">
          <mxGeometry x="40" y="900" width="110" height="50" as="geometry" />
        </mxCell>
        <mxCell id="d0ymZouNEAS_O8Z15JuN-5" value="Sistema&lt;span style=&quot;color: rgba(0, 0, 0, 0); font-family: monospace; font-size: 0px; text-align: start; text-wrap-mode: nowrap;&quot;&gt;%3CmxGraphModel%3E%3Croot%3E%3CmxCell%20id%3D%220%22%2F%3E%3CmxCell%20id%3D%221%22%20parent%3D%220%22%2F%3E%3CmxCell%20id%3D%222%22%20value%3D%22Usuario%22%20style%3D%22html%3D1%3BwhiteSpace%3Dwrap%3B%22%20vertex%3D%221%22%20parent%3D%221%22%3E%3CmxGeometry%20x%3D%2270%22%20y%3D%2240%22%20width%3D%22110%22%20height%3D%2250%22%20as%3D%22geometry%22%2F%3E%3C%2FmxCell%3E%3C%2Froot%3E%3C%2FmxGraphModel%3E&lt;/span&gt;" style="html=1;whiteSpace=wrap;" vertex="1" parent="1">
          <mxGeometry x="250" y="900" width="110" height="50" as="geometry" />
        </mxCell>
        <mxCell id="d0ymZouNEAS_O8Z15JuN-6" value="Base de datos" style="html=1;whiteSpace=wrap;" vertex="1" parent="1">
          <mxGeometry x="447.5" y="900" width="110" height="50" as="geometry" />
        </mxCell>
        <mxCell id="d0ymZouNEAS_O8Z15JuN-7" value="" style="endArrow=none;dashed=1;html=1;rounded=0;entryX=0.5;entryY=1;entryDx=0;entryDy=0;exitX=0.5;exitY=0;exitDx=0;exitDy=0;" edge="1" parent="1" source="d0ymZouNEAS_O8Z15JuN-9" target="d0ymZouNEAS_O8Z15JuN-2">
          <mxGeometry width="50" height="50" relative="1" as="geometry">
            <mxPoint x="280" y="330" as="sourcePoint" />
            <mxPoint x="330" y="280" as="targetPoint" />
          </mxGeometry>
        </mxCell>
        <mxCell id="d0ymZouNEAS_O8Z15JuN-8" value="" style="endArrow=none;dashed=1;html=1;rounded=0;entryX=0.5;entryY=1;entryDx=0;entryDy=0;" edge="1" parent="1" source="d0ymZouNEAS_O8Z15JuN-24" target="d0ymZouNEAS_O8Z15JuN-9">
          <mxGeometry width="50" height="50" relative="1" as="geometry">
            <mxPoint x="305.5" y="360" as="sourcePoint" />
            <mxPoint x="305" y="100" as="targetPoint" />
          </mxGeometry>
        </mxCell>
        <mxCell id="d0ymZouNEAS_O8Z15JuN-9" value="" style="html=1;points=[[0,0,0,0,5],[0,1,0,0,-5],[1,0,0,0,5],[1,1,0,0,-5]];perimeter=orthogonalPerimeter;outlineConnect=0;targetShapes=umlLifeline;portConstraint=eastwest;newEdgeStyle={&quot;curved&quot;:0,&quot;rounded&quot;:0};" vertex="1" parent="1">
          <mxGeometry x="300" y="140" width="10" height="30" as="geometry" />
        </mxCell>
        <mxCell id="d0ymZouNEAS_O8Z15JuN-10" value="" style="endArrow=classic;html=1;rounded=0;entryX=0;entryY=0;entryDx=0;entryDy=5;entryPerimeter=0;" edge="1" parent="1" target="d0ymZouNEAS_O8Z15JuN-9">
          <mxGeometry width="50" height="50" relative="1" as="geometry">
            <mxPoint x="100" y="145" as="sourcePoint" />
            <mxPoint x="210" y="120" as="targetPoint" />
          </mxGeometry>
        </mxCell>
        <mxCell id="d0ymZouNEAS_O8Z15JuN-11" value="1. Accede a la galería de eventos&amp;nbsp;" style="text;html=1;align=center;verticalAlign=middle;whiteSpace=wrap;rounded=0;" vertex="1" parent="1">
          <mxGeometry x="100" y="120" width="200" height="20" as="geometry" />
        </mxCell>
        <mxCell id="d0ymZouNEAS_O8Z15JuN-12" value="2. Consultar imágenes" style="text;html=1;align=center;verticalAlign=middle;whiteSpace=wrap;rounded=0;" vertex="1" parent="1">
          <mxGeometry x="316.25" y="160" width="170" height="20" as="geometry" />
        </mxCell>
        <mxCell id="d0ymZouNEAS_O8Z15JuN-13" value="" style="endArrow=classic;html=1;rounded=0;entryX=0;entryY=0;entryDx=0;entryDy=5;entryPerimeter=0;" edge="1" parent="1" target="d0ymZouNEAS_O8Z15JuN-34">
          <mxGeometry width="50" height="50" relative="1" as="geometry">
            <mxPoint x="310" y="185" as="sourcePoint" />
            <mxPoint x="585" y="180" as="targetPoint" />
          </mxGeometry>
        </mxCell>
        <mxCell id="d0ymZouNEAS_O8Z15JuN-14" value="" style="endArrow=none;dashed=1;html=1;rounded=0;exitX=0.5;exitY=0;exitDx=0;exitDy=0;entryX=0.5;entryY=1;entryDx=0;entryDy=0;" edge="1" parent="1" source="d0ymZouNEAS_O8Z15JuN-34" target="d0ymZouNEAS_O8Z15JuN-3">
          <mxGeometry width="50" height="50" relative="1" as="geometry">
            <mxPoint x="505" y="900" as="sourcePoint" />
            <mxPoint x="505" y="490" as="targetPoint" />
          </mxGeometry>
        </mxCell>
        <mxCell id="d0ymZouNEAS_O8Z15JuN-15" value="" style="endArrow=none;dashed=1;html=1;rounded=0;exitX=0.449;exitY=-0.016;exitDx=0;exitDy=0;exitPerimeter=0;entryX=0.373;entryY=1.02;entryDx=0;entryDy=0;entryPerimeter=0;" edge="1" parent="1" source="d0ymZouNEAS_O8Z15JuN-25" target="d0ymZouNEAS_O8Z15JuN-1">
          <mxGeometry width="50" height="50" relative="1" as="geometry">
            <mxPoint x="94" y="899" as="sourcePoint" />
            <mxPoint x="92.33000000000004" y="210.51" as="targetPoint" />
            <Array as="points" />
          </mxGeometry>
        </mxCell>
        <mxCell id="d0ymZouNEAS_O8Z15JuN-16" value="9. Notificación de error: Comentario inválido" style="text;html=1;align=center;verticalAlign=middle;whiteSpace=wrap;rounded=0;" vertex="1" parent="1">
          <mxGeometry x="95.25" y="600" width="190" height="20" as="geometry" />
        </mxCell>
        <mxCell id="d0ymZouNEAS_O8Z15JuN-17" value="3. Retornar imágenes" style="text;html=1;align=center;verticalAlign=middle;whiteSpace=wrap;rounded=0;" vertex="1" parent="1">
          <mxGeometry x="311.5" y="210" width="170" height="20" as="geometry" />
        </mxCell>
        <mxCell id="d0ymZouNEAS_O8Z15JuN-18" value="" style="endArrow=classic;html=1;rounded=0;entryX=1;entryY=0;entryDx=0;entryDy=5;entryPerimeter=0;" edge="1" parent="1" target="d0ymZouNEAS_O8Z15JuN-24">
          <mxGeometry width="50" height="50" relative="1" as="geometry">
            <mxPoint x="500" y="235" as="sourcePoint" />
            <mxPoint x="192.5" y="190" as="targetPoint" />
          </mxGeometry>
        </mxCell>
        <mxCell id="d0ymZouNEAS_O8Z15JuN-19" value="" style="endArrow=none;dashed=1;html=1;rounded=0;exitX=0.5;exitY=0;exitDx=0;exitDy=0;" edge="1" parent="1" source="d0ymZouNEAS_O8Z15JuN-45" target="d0ymZouNEAS_O8Z15JuN-28">
          <mxGeometry width="50" height="50" relative="1" as="geometry">
            <mxPoint x="297.5" y="446" as="sourcePoint" />
            <mxPoint x="310" y="390" as="targetPoint" />
            <Array as="points" />
          </mxGeometry>
        </mxCell>
        <mxCell id="d0ymZouNEAS_O8Z15JuN-20" value="" style="endArrow=none;dashed=1;html=1;rounded=0;exitX=0.5;exitY=0;exitDx=0;exitDy=0;" edge="1" parent="1" source="d0ymZouNEAS_O8Z15JuN-6" target="d0ymZouNEAS_O8Z15JuN-40">
          <mxGeometry width="50" height="50" relative="1" as="geometry">
            <mxPoint x="491.25" y="901" as="sourcePoint" />
            <mxPoint x="491.25" y="786" as="targetPoint" />
          </mxGeometry>
        </mxCell>
        <mxCell id="d0ymZouNEAS_O8Z15JuN-21" value="11. Confirmación" style="text;html=1;align=center;verticalAlign=middle;whiteSpace=wrap;rounded=0;" vertex="1" parent="1">
          <mxGeometry x="304.75" y="750" width="190" height="20" as="geometry" />
        </mxCell>
        <mxCell id="d0ymZouNEAS_O8Z15JuN-22" value="" style="endArrow=classic;html=1;rounded=0;entryX=1;entryY=0;entryDx=0;entryDy=5;entryPerimeter=0;" edge="1" parent="1" target="d0ymZouNEAS_O8Z15JuN-43">
          <mxGeometry width="50" height="50" relative="1" as="geometry">
            <mxPoint x="487.25" y="775" as="sourcePoint" />
            <mxPoint x="573.75" y="680" as="targetPoint" />
          </mxGeometry>
        </mxCell>
        <mxCell id="d0ymZouNEAS_O8Z15JuN-23" value="" style="endArrow=none;dashed=1;html=1;rounded=0;entryX=0.5;entryY=1;entryDx=0;entryDy=0;" edge="1" parent="1" source="d0ymZouNEAS_O8Z15JuN-28" target="d0ymZouNEAS_O8Z15JuN-24">
          <mxGeometry width="50" height="50" relative="1" as="geometry">
            <mxPoint x="305" y="280" as="sourcePoint" />
            <mxPoint x="305" y="170" as="targetPoint" />
          </mxGeometry>
        </mxCell>
        <mxCell id="d0ymZouNEAS_O8Z15JuN-24" value="" style="html=1;points=[[0,0,0,0,5],[0,1,0,0,-5],[1,0,0,0,5],[1,1,0,0,-5]];perimeter=orthogonalPerimeter;outlineConnect=0;targetShapes=umlLifeline;portConstraint=eastwest;newEdgeStyle={&quot;curved&quot;:0,&quot;rounded&quot;:0};" vertex="1" parent="1">
          <mxGeometry x="301.5" y="230" width="10" height="30" as="geometry" />
        </mxCell>
        <mxCell id="d0ymZouNEAS_O8Z15JuN-25" value="" style="html=1;points=[[0,0,0,0,5],[0,1,0,0,-5],[1,0,0,0,5],[1,1,0,0,-5]];perimeter=orthogonalPerimeter;outlineConnect=0;targetShapes=umlLifeline;portConstraint=eastwest;newEdgeStyle={&quot;curved&quot;:0,&quot;rounded&quot;:0};" vertex="1" parent="1">
          <mxGeometry x="87.5" y="276" width="10" height="30" as="geometry" />
        </mxCell>
        <mxCell id="d0ymZouNEAS_O8Z15JuN-26" value="" style="endArrow=classic;html=1;rounded=0;entryX=1;entryY=0;entryDx=0;entryDy=5;entryPerimeter=0;" edge="1" parent="1" target="d0ymZouNEAS_O8Z15JuN-25">
          <mxGeometry width="50" height="50" relative="1" as="geometry">
            <mxPoint x="300" y="282" as="sourcePoint" />
            <mxPoint x="412" y="252" as="targetPoint" />
          </mxGeometry>
        </mxCell>
        <mxCell id="d0ymZouNEAS_O8Z15JuN-27" value="4. Mostrar galería" style="text;html=1;align=center;verticalAlign=middle;whiteSpace=wrap;rounded=0;" vertex="1" parent="1">
          <mxGeometry x="115" y="256" width="170" height="20" as="geometry" />
        </mxCell>
        <mxCell id="d0ymZouNEAS_O8Z15JuN-28" value="" style="html=1;points=[[0,0,0,0,5],[0,1,0,0,-5],[1,0,0,0,5],[1,1,0,0,-5]];perimeter=orthogonalPerimeter;outlineConnect=0;targetShapes=umlLifeline;portConstraint=eastwest;newEdgeStyle={&quot;curved&quot;:0,&quot;rounded&quot;:0};" vertex="1" parent="1">
          <mxGeometry x="300" y="326" width="10" height="30" as="geometry" />
        </mxCell>
        <mxCell id="d0ymZouNEAS_O8Z15JuN-29" value="" style="endArrow=classic;html=1;rounded=0;entryX=0;entryY=0;entryDx=0;entryDy=5;entryPerimeter=0;" edge="1" parent="1" target="d0ymZouNEAS_O8Z15JuN-28">
          <mxGeometry width="50" height="50" relative="1" as="geometry">
            <mxPoint x="100" y="330" as="sourcePoint" />
            <mxPoint x="432" y="236" as="targetPoint" />
          </mxGeometry>
        </mxCell>
        <mxCell id="d0ymZouNEAS_O8Z15JuN-30" value="5. Seleccionar imagen" style="text;html=1;align=center;verticalAlign=middle;whiteSpace=wrap;rounded=0;" vertex="1" parent="1">
          <mxGeometry x="115" y="306" width="170" height="20" as="geometry" />
        </mxCell>
        <mxCell id="d0ymZouNEAS_O8Z15JuN-31" value="" style="endArrow=none;dashed=1;html=1;rounded=0;exitX=0.394;exitY=0.013;exitDx=0;exitDy=0;exitPerimeter=0;" edge="1" parent="1" source="d0ymZouNEAS_O8Z15JuN-4" target="d0ymZouNEAS_O8Z15JuN-32">
          <mxGeometry width="50" height="50" relative="1" as="geometry">
            <mxPoint x="85" y="905" as="sourcePoint" />
            <mxPoint x="89" y="656" as="targetPoint" />
            <Array as="points" />
          </mxGeometry>
        </mxCell>
        <mxCell id="d0ymZouNEAS_O8Z15JuN-32" value="&lt;span style=&quot;color: rgb(237, 237, 237); font-family: monospace; font-size: 0px; text-align: start;&quot;&gt;%3CmxGraphModel%3E%3Croot%3E%3CmxCell%20id%3D%220%22%2F%3E%3CmxCell%20id%3D%221%22%20parent%3D%220%22%2F%3E%3CmxCell%20id%3D%222%22%20value%3D%22%22%20style%3D%22html%3D1%3Bpoints%3D%5B%5B0%2C0%2C0%2C0%2C5%5D%2C%5B0%2C1%2C0%2C0%2C-5%5D%2C%5B1%2C0%2C0%2C0%2C5%5D%2C%5B1%2C1%2C0%2C0%2C-5%5D%5D%3Bperimeter%3DorthogonalPerimeter%3BoutlineConnect%3D0%3BtargetShapes%3DumlLifeline%3BportConstraint%3Deastwest%3BnewEdgeStyle%3D%7B%26quot%3Bcurved%26quot%3B%3A0%2C%26quot%3Brounded%26quot%3B%3A0%7D%3B%22%20vertex%3D%221%22%20parent%3D%221%22%3E%3CmxGeometry%20x%3D%2285%22%20y%3D%22280%22%20width%3D%2210%22%20height%3D%2230%22%20as%3D%22geometry%22%2F%3E%3C%2FmxCell%3E%3C%2Froot%3E%3C%2FmxGraphModel%3E&lt;/span&gt;&lt;span style=&quot;color: rgb(237, 237, 237); font-family: monospace; font-size: 0px; text-align: start;&quot;&gt;%3CmxGraphModel%3E%3Croot%3E%3CmxCell%20id%3D%220%22%2F%3E%3CmxCell%20id%3D%221%22%20parent%3D%220%22%2F%3E%3CmxCell%20id%3D%222%22%20value%3D%22%22%20style%3D%22html%3D1%3Bpoints%3D%5B%5B0%2C0%2C0%2C0%2C5%5D%2C%5B0%2C1%2C0%2C0%2C-5%5D%2C%5B1%2C0%2C0%2C0%2C5%5D%2C%5B1%2C1%2C0%2C0%2C-5%5D%5D%3Bperimeter%3DorthogonalPerimeter%3BoutlineConnect%3D0%3BtargetShapes%3DumlLifeline%3BportConstraint%3Deastwest%3BnewEdgeStyle%3D%7B%26quot%3Bcurved%26quot%3B%3A0%2C%26quot%3Brounded%26quot%3B%3A0%7D%3B%22%20vertex%3D%221%22%20parent%3D%221%22%3E%3CmxGeometry%20x%3D%2285%22%20y%3D%22280%22%20width%3D%2210%22%20height%3D%2230%22%20as%3D%22geometry%22%2F%3E%3C%2FmxCell%3E%3C%2Froot%3E%3C%2FmxGraphModel%3E&lt;/span&gt;" style="html=1;points=[[0,0,0,0,5],[0,1,0,0,-5],[1,0,0,0,5],[1,1,0,0,-5]];perimeter=orthogonalPerimeter;outlineConnect=0;targetShapes=umlLifeline;portConstraint=eastwest;newEdgeStyle={&quot;curved&quot;:0,&quot;rounded&quot;:0};" vertex="1" parent="1">
          <mxGeometry x="79" y="630" width="10" height="30" as="geometry" />
        </mxCell>
        <mxCell id="d0ymZouNEAS_O8Z15JuN-33" value="" style="endArrow=none;dashed=1;html=1;rounded=0;exitX=0.5;exitY=0;exitDx=0;exitDy=0;entryX=0.5;entryY=1;entryDx=0;entryDy=0;" edge="1" parent="1" source="d0ymZouNEAS_O8Z15JuN-40" target="d0ymZouNEAS_O8Z15JuN-34">
          <mxGeometry width="50" height="50" relative="1" as="geometry">
            <mxPoint x="501" y="576" as="sourcePoint" />
            <mxPoint x="505" y="100" as="targetPoint" />
          </mxGeometry>
        </mxCell>
        <mxCell id="d0ymZouNEAS_O8Z15JuN-34" value="" style="html=1;points=[[0,0,0,0,5],[0,1,0,0,-5],[1,0,0,0,5],[1,1,0,0,-5]];perimeter=orthogonalPerimeter;outlineConnect=0;targetShapes=umlLifeline;portConstraint=eastwest;newEdgeStyle={&quot;curved&quot;:0,&quot;rounded&quot;:0};" vertex="1" parent="1">
          <mxGeometry x="497.5" y="180" width="10" height="30" as="geometry" />
        </mxCell>
        <mxCell id="d0ymZouNEAS_O8Z15JuN-35" value="" style="endArrow=none;dashed=1;html=1;rounded=0;exitX=0.449;exitY=-0.016;exitDx=0;exitDy=0;exitPerimeter=0;" edge="1" parent="1" source="d0ymZouNEAS_O8Z15JuN-32" target="d0ymZouNEAS_O8Z15JuN-25">
          <mxGeometry width="50" height="50" relative="1" as="geometry">
            <mxPoint x="94" y="726" as="sourcePoint" />
            <mxPoint x="90" y="385" as="targetPoint" />
            <Array as="points" />
          </mxGeometry>
        </mxCell>
        <mxCell id="d0ymZouNEAS_O8Z15JuN-36" value="" style="endArrow=classic;html=1;rounded=0;entryX=1;entryY=1;entryDx=0;entryDy=-5;entryPerimeter=0;exitX=1;exitY=0;exitDx=0;exitDy=5;exitPerimeter=0;edgeStyle=orthogonalEdgeStyle;" edge="1" parent="1">
          <mxGeometry width="50" height="50" relative="1" as="geometry">
            <mxPoint x="311.87" y="495" as="sourcePoint" />
            <mxPoint x="311.87" y="515" as="targetPoint" />
            <Array as="points">
              <mxPoint x="350.37" y="515" />
            </Array>
          </mxGeometry>
        </mxCell>
        <mxCell id="d0ymZouNEAS_O8Z15JuN-37" value="8. Validar comentario" style="text;html=1;align=center;verticalAlign=middle;whiteSpace=wrap;rounded=0;" vertex="1" parent="1">
          <mxGeometry x="330" y="495" width="110" height="20" as="geometry" />
        </mxCell>
        <mxCell id="d0ymZouNEAS_O8Z15JuN-38" value="" style="endArrow=none;dashed=1;html=1;rounded=0;exitX=0.443;exitY=-0.04;exitDx=0;exitDy=0;exitPerimeter=0;" edge="1" parent="1" source="d0ymZouNEAS_O8Z15JuN-43" target="d0ymZouNEAS_O8Z15JuN-45">
          <mxGeometry width="50" height="50" relative="1" as="geometry">
            <mxPoint x="306.87" y="846" as="sourcePoint" />
            <mxPoint x="307.80000000000007" y="660" as="targetPoint" />
            <Array as="points" />
          </mxGeometry>
        </mxCell>
        <mxCell id="d0ymZouNEAS_O8Z15JuN-39" value="[Comentario inválido]" style="text;html=1;align=center;verticalAlign=middle;whiteSpace=wrap;rounded=0;" vertex="1" parent="1">
          <mxGeometry x="210" y="560" width="170" height="20" as="geometry" />
        </mxCell>
        <mxCell id="d0ymZouNEAS_O8Z15JuN-40" value="" style="html=1;points=[[0,0,0,0,5],[0,1,0,0,-5],[1,0,0,0,5],[1,1,0,0,-5]];perimeter=orthogonalPerimeter;outlineConnect=0;targetShapes=umlLifeline;portConstraint=eastwest;newEdgeStyle={&quot;curved&quot;:0,&quot;rounded&quot;:0};" vertex="1" parent="1">
          <mxGeometry x="494.75" y="710" width="10" height="30" as="geometry" />
        </mxCell>
        <mxCell id="d0ymZouNEAS_O8Z15JuN-41" value="" style="endArrow=classic;html=1;rounded=0;entryX=0;entryY=0;entryDx=0;entryDy=5;entryPerimeter=0;" edge="1" parent="1" target="d0ymZouNEAS_O8Z15JuN-40">
          <mxGeometry width="50" height="50" relative="1" as="geometry">
            <mxPoint x="310" y="715" as="sourcePoint" />
            <mxPoint x="448.5" y="680" as="targetPoint" />
          </mxGeometry>
        </mxCell>
        <mxCell id="d0ymZouNEAS_O8Z15JuN-42" value="10. Guardar comentario" style="text;html=1;align=center;verticalAlign=middle;whiteSpace=wrap;rounded=0;" vertex="1" parent="1">
          <mxGeometry x="306" y="690" width="170" height="20" as="geometry" />
        </mxCell>
        <mxCell id="d0ymZouNEAS_O8Z15JuN-43" value="&lt;span style=&quot;color: rgb(237, 237, 237); font-family: monospace; font-size: 0px; text-align: start;&quot;&gt;%3CmxGraphModel%3E%3Croot%3E%3CmxCell%20id%3D%220%22%2F%3E%3CmxCell%20id%3D%221%22%20parent%3D%220%22%2F%3E%3CmxCell%20id%3D%222%22%20value%3D%22%22%20style%3D%22html%3D1%3Bpoints%3D%5B%5B0%2C0%2C0%2C0%2C5%5D%2C%5B0%2C1%2C0%2C0%2C-5%5D%2C%5B1%2C0%2C0%2C0%2C5%5D%2C%5B1%2C1%2C0%2C0%2C-5%5D%5D%3Bperimeter%3DorthogonalPerimeter%3BoutlineConnect%3D0%3BtargetShapes%3DumlLifeline%3BportConstraint%3Deastwest%3BnewEdgeStyle%3D%7B%26quot%3Bcurved%26quot%3B%3A0%2C%26quot%3Brounded%26quot%3B%3A0%7D%3B%22%20vertex%3D%221%22%20parent%3D%221%22%3E%3CmxGeometry%20x%3D%2285%22%20y%3D%22280%22%20width%3D%2210%22%20height%3D%2230%22%20as%3D%22geometry%22%2F%3E%3C%2FmxCell%3E%3C%2Froot%3E%3C%2FmxGraphModel%3E&lt;/span&gt;&lt;span style=&quot;color: rgb(237, 237, 237); font-family: monospace; font-size: 0px; text-align: start;&quot;&gt;%3CmxGraphModel%3E%3Croot%3E%3CmxCell%20id%3D%220%22%2F%3E%3CmxCell%20id%3D%221%22%20parent%3D%220%22%2F%3E%3CmxCell%20id%3D%222%22%20value%3D%22%22%20style%3D%22html%3D1%3Bpoints%3D%5B%5B0%2C0%2C0%2C0%2C5%5D%2C%5B0%2C1%2C0%2C0%2C-5%5D%2C%5B1%2C0%2C0%2C0%2C5%5D%2C%5B1%2C1%2C0%2C0%2C-5%5D%5D%3Bperimeter%3DorthogonalPerimeter%3BoutlineConnect%3D0%3BtargetShapes%3DumlLifeline%3BportConstraint%3Deastwest%3BnewEdgeStyle%3D%7B%26quot%3Bcurved%26quot%3B%3A0%2C%26quot%3Brounded%26quot%3B%3A0%7D%3B%22%20vertex%3D%221%22%20parent%3D%221%22%3E%3CmxGeometry%20x%3D%2285%22%20y%3D%22280%22%20width%3D%2210%22%20height%3D%2230%22%20as%3D%22geometry%22%2F%3E%3C%2FmxCell%3E%3C%2Froot%3E%3C%2FmxGraphModel%3E&lt;/span&gt;" style="html=1;points=[[0,0,0,0,5],[0,1,0,0,-5],[1,0,0,0,5],[1,1,0,0,-5]];perimeter=orthogonalPerimeter;outlineConnect=0;targetShapes=umlLifeline;portConstraint=eastwest;newEdgeStyle={&quot;curved&quot;:0,&quot;rounded&quot;:0};" vertex="1" parent="1">
          <mxGeometry x="300" y="770" width="10" height="30" as="geometry" />
        </mxCell>
        <mxCell id="d0ymZouNEAS_O8Z15JuN-44" value="" style="endArrow=open;endSize=12;dashed=1;html=1;rounded=0;fontSize=12;curved=1;entryX=1;entryY=0;entryDx=0;entryDy=5;entryPerimeter=0;" edge="1" parent="1" target="d0ymZouNEAS_O8Z15JuN-32">
          <mxGeometry width="160" relative="1" as="geometry">
            <mxPoint x="291.5" y="635" as="sourcePoint" />
            <mxPoint x="361.5" y="430" as="targetPoint" />
          </mxGeometry>
        </mxCell>
        <mxCell id="d0ymZouNEAS_O8Z15JuN-45" value="" style="html=1;points=[[0,0,0,0,5],[0,1,0,0,-5],[1,0,0,0,5],[1,1,0,0,-5]];perimeter=orthogonalPerimeter;outlineConnect=0;targetShapes=umlLifeline;portConstraint=eastwest;newEdgeStyle={&quot;curved&quot;:0,&quot;rounded&quot;:0};" vertex="1" parent="1">
          <mxGeometry x="301.87" y="490" width="10" height="30" as="geometry" />
        </mxCell>
        <mxCell id="d0ymZouNEAS_O8Z15JuN-46" value="alt" style="shape=umlFrame;whiteSpace=wrap;html=1;pointerEvents=0;" vertex="1" parent="1">
          <mxGeometry x="56" y="550" width="454" height="120" as="geometry" />
        </mxCell>
        <mxCell id="d0ymZouNEAS_O8Z15JuN-47" value="" style="endArrow=none;dashed=1;html=1;rounded=0;exitX=0.5;exitY=0;exitDx=0;exitDy=0;" edge="1" parent="1" source="d0ymZouNEAS_O8Z15JuN-5" target="d0ymZouNEAS_O8Z15JuN-43">
          <mxGeometry width="50" height="50" relative="1" as="geometry">
            <mxPoint x="290" y="959" as="sourcePoint" />
            <mxPoint x="290" y="720" as="targetPoint" />
            <Array as="points" />
          </mxGeometry>
        </mxCell>
        <mxCell id="d0ymZouNEAS_O8Z15JuN-48" value="" style="html=1;points=[[0,0,0,0,5],[0,1,0,0,-5],[1,0,0,0,5],[1,1,0,0,-5]];perimeter=orthogonalPerimeter;outlineConnect=0;targetShapes=umlLifeline;portConstraint=eastwest;newEdgeStyle={&quot;curved&quot;:0,&quot;rounded&quot;:0};" vertex="1" parent="1">
          <mxGeometry x="79" y="820" width="10" height="30" as="geometry" />
        </mxCell>
        <mxCell id="d0ymZouNEAS_O8Z15JuN-49" value="" style="endArrow=classic;html=1;rounded=0;entryX=1;entryY=0;entryDx=0;entryDy=5;entryPerimeter=0;dashed=1;" edge="1" parent="1" target="d0ymZouNEAS_O8Z15JuN-48">
          <mxGeometry width="50" height="50" relative="1" as="geometry">
            <mxPoint x="291.5" y="826" as="sourcePoint" />
            <mxPoint x="403.5" y="796" as="targetPoint" />
          </mxGeometry>
        </mxCell>
        <mxCell id="d0ymZouNEAS_O8Z15JuN-50" value="12. Notificación de éxito: Comentario enviado correctamente" style="text;html=1;align=center;verticalAlign=middle;whiteSpace=wrap;rounded=0;" vertex="1" parent="1">
          <mxGeometry x="105.25" y="790" width="170" height="20" as="geometry" />
        </mxCell>
        <mxCell id="d0ymZouNEAS_O8Z15JuN-51" value="" style="html=1;points=[[0,0,0,0,5],[0,1,0,0,-5],[1,0,0,0,5],[1,1,0,0,-5]];perimeter=orthogonalPerimeter;outlineConnect=0;targetShapes=umlLifeline;portConstraint=eastwest;newEdgeStyle={&quot;curved&quot;:0,&quot;rounded&quot;:0};" vertex="1" parent="1">
          <mxGeometry x="90.87" y="376" width="10" height="30" as="geometry" />
        </mxCell>
        <mxCell id="d0ymZouNEAS_O8Z15JuN-52" value="" style="endArrow=classic;html=1;rounded=0;entryX=1;entryY=0;entryDx=0;entryDy=5;entryPerimeter=0;" edge="1" parent="1" target="d0ymZouNEAS_O8Z15JuN-51">
          <mxGeometry width="50" height="50" relative="1" as="geometry">
            <mxPoint x="303.37" y="382" as="sourcePoint" />
            <mxPoint x="415.37" y="352" as="targetPoint" />
          </mxGeometry>
        </mxCell>
        <mxCell id="d0ymZouNEAS_O8Z15JuN-53" value="6. Mostrar campo para comentar" style="text;html=1;align=center;verticalAlign=middle;whiteSpace=wrap;rounded=0;" vertex="1" parent="1">
          <mxGeometry x="118.37" y="356" width="170" height="20" as="geometry" />
        </mxCell>
        <mxCell id="d0ymZouNEAS_O8Z15JuN-54" value="" style="html=1;points=[[0,0,0,0,5],[0,1,0,0,-5],[1,0,0,0,5],[1,1,0,0,-5]];perimeter=orthogonalPerimeter;outlineConnect=0;targetShapes=umlLifeline;portConstraint=eastwest;newEdgeStyle={&quot;curved&quot;:0,&quot;rounded&quot;:0};" vertex="1" parent="1">
          <mxGeometry x="300" y="420" width="10" height="30" as="geometry" />
        </mxCell>
        <mxCell id="d0ymZouNEAS_O8Z15JuN-55" value="" style="endArrow=classic;html=1;rounded=0;entryX=0;entryY=0;entryDx=0;entryDy=5;entryPerimeter=0;" edge="1" parent="1" target="d0ymZouNEAS_O8Z15JuN-54">
          <mxGeometry width="50" height="50" relative="1" as="geometry">
            <mxPoint x="100" y="424" as="sourcePoint" />
            <mxPoint x="432" y="330" as="targetPoint" />
          </mxGeometry>
        </mxCell>
        <mxCell id="d0ymZouNEAS_O8Z15JuN-56" value="7. Enviar comentario" style="text;html=1;align=center;verticalAlign=middle;whiteSpace=wrap;rounded=0;" vertex="1" parent="1">
          <mxGeometry x="115" y="400" width="170" height="20" as="geometry" />
        </mxCell>
      </root>
    </mxGraphModel>
  </diagram>
</mxfile>
